<?xml version="1.0" encoding="UTF-8"?>
<svg id="Camada_2" data-name="Camada 2" xmlns="http://www.w3.org/2000/svg" viewBox="0 0 752.3 177.74">
  <defs>
    <style>
      .cls-1 {
        fill: #fff;
      }

      .cls-2 {
        fill: none;
        stroke: #fff;
        stroke-miterlimit: 10;
        stroke-width: 14px;
      }
    </style>
  </defs>
  <g id="Camada_1-2" data-name="Camada 1">
    <g>
      <g>
        <rect class="cls-2" x="7" y="7" width="163.74" height="163.74" rx="12" ry="12"/>
        <path class="cls-1" d="M89.78,29.58c-.23,0-.46,0-.68.03-.23-.03-.46-.03-.68-.03-31.97,0-52.62,17.58-60.04,25.15h13.75v13.45l.24.23c4.94-5.06,17.67-16,37.24-18.66v98.41h20.34V49.98c18.78,2.98,31.06,13.5,35.88,18.43l14.01-13.67c-7.41-7.57-28.06-25.16-60.05-25.16Z"/>
      </g>
      <g>
        <path class="cls-1" d="M325.78,88.56c0,14.35-11.01,26.02-24.53,26.02s-24.53-11.67-24.53-26.02,11.01-26.02,24.53-26.02,24.53,11.67,24.53,26.02ZM314.44,88.56c0-8.09-5.92-14.68-13.19-14.68s-13.19,6.58-13.19,14.68,5.92,14.68,13.19,14.68,13.19-6.58,13.19-14.68Z"/>
        <path class="cls-1" d="M379.7,88.56v26h-11.34v-26c0-8.09-5.92-14.68-13.19-14.68s-13.19,6.58-13.19,14.68v26.09h-11.34v-26.09c0-14.35,11.01-26.02,24.53-26.02s24.53,11.67,24.53,26.02Z"/>
        <path class="cls-1" d="M503,114.65h-34.34V46.5h31.99c11.41,0,19.37,7.59,19.37,18.46,0,6.72-2.99,12.1-7.97,14.67,6.28,2.5,10.33,8.83,10.33,16.55,0,10.87-7.97,18.46-19.37,18.46ZM480.44,74.13h23.8c2.48-1.61,3.9-4.45,3.9-8.17,0-5.82-3.72-9.58-9.49-9.58h-18.2v17.75ZM501,104.77c5.85,0,9.49-3.71,9.49-9.68,0-4.76-2.52-8.11-6.59-9.18h-23.47v18.86h20.57Z"/>
        <path class="cls-1" d="M580.78,114.65V46.51h11.24v68.15h-11.24Z"/>
        <path class="cls-1" d="M600.25,114.65V46.51h11.24v68.15h-11.24Z"/>
        <path class="cls-1" d="M628.7,92.48c1.36,6.62,6.69,11.53,13.06,11.53,4.76,0,8.96-2.76,11.32-6.94h11.78c-3.18,10.34-12.32,17.8-23.1,17.8-13.4,0-24.29-11.55-24.29-25.78s10.89-25.78,24.29-25.78c10.77,0,19.94,7.48,23.1,17.82.77,2.49,1.19,5.18,1.19,7.96,0,1.15-.08,2.27-.23,3.38h-37.12ZM653.08,81.14c-2.34-4.18-6.54-6.96-11.32-6.96s-8.98,2.78-11.32,6.96h22.64Z"/>
        <path class="cls-1" d="M752.3,77.01v36.62h-11.34v-2.16c-4.18,2.71-8.35,3.11-10.38,3.11-10.04,0-18.22-8.17-18.22-18.22s8.17-18.22,18.22-18.22h10.38v-1.14c0-1.74-1.41-3.15-3.15-3.15h-7.23v-11.34h7.23c7.99,0,14.49,6.5,14.49,14.49ZM740.74,89.49h-10.16c-3.79,0-6.87,3.09-6.87,6.88s3.09,6.88,6.87,6.88c6.81,0,9.27-7.89,10.16-13.75Z"/>
        <path class="cls-1" d="M248.05,46.38c-.13,0-.26,0-.4.02-.13-.02-.27-.02-.4-.02-18.52,0-30.48,10.18-34.77,14.57h7.96v7.79l.14.14c2.86-2.93,10.24-9.27,21.57-10.81v57h11.78v-56.86c10.88,1.72,17.99,7.82,20.78,10.68l8.11-7.92c-4.29-4.38-16.25-14.57-34.78-14.57Z"/>
        <polygon class="cls-1" points="409.48 131.35 409.48 131.35 431.89 62.52 419.26 62.52 407.27 99.39 391.03 62.52 378.43 62.52 394.66 99.39 407.27 99.39 396.87 131.36 409.48 131.35"/>
        <path class="cls-1" d="M574.95,89.09c0-2.78-.42-5.46-1.19-7.96-3.16-10.34-12.32-17.82-23.1-17.82-13.4,0-24.29,11.57-24.29,25.78s10.89,25.78,24.29,25.78c10.77,0,19.92-7.46,23.1-17.8l-5.89,5.63-5.89-5.63c-2.36,4.18-6.56,6.94-11.32,6.94-6.37,0-11.7-4.91-13.06-11.53h37.12c.15-1.12.23-2.23.23-3.38ZM539.34,81.14c2.34-4.18,6.54-6.96,11.32-6.96s8.98,2.78,11.32,6.96h-22.64Z"/>
        <polygon class="cls-1" points="708.6 103.29 682.85 103.29 708.65 76.37 708.65 62.52 669.54 62.52 669.54 73.86 695.36 73.86 669.54 100.77 669.54 114.63 708.65 114.63 708.65 114.51 708.6 103.29 708.6 103.29"/>
      </g>
    </g>
  </g>
</svg>